<?xml version="1.0" encoding="UTF-8" standalone="no"?>
<svg
   viewBox="0 0 32 32"
   version="1.1"
   id="svg4"
   sodipodi:docname="favicon.svg"
   inkscape:version="1.4.3 (0d15f75042, 2025-12-25)"
   xmlns:inkscape="http://www.inkscape.org/namespaces/inkscape"
   xmlns:sodipodi="http://sodipodi.sourceforge.net/DTD/sodipodi-0.dtd"
   xmlns="http://www.w3.org/2000/svg"
   xmlns:svg="http://www.w3.org/2000/svg">
  <sodipodi:namedview
     id="namedview4"
     pagecolor="#505050"
     bordercolor="#eeeeee"
     borderopacity="1"
     inkscape:showpageshadow="0"
     inkscape:pageopacity="0"
     inkscape:pagecheckerboard="0"
     inkscape:deskcolor="#505050"
     inkscape:zoom="22.627417"
     inkscape:cx="40.570251"
     inkscape:cy="41.166873"
     inkscape:window-width="1354"
     inkscape:window-height="716"
     inkscape:window-x="0"
     inkscape:window-y="0"
     inkscape:window-maximized="1"
     inkscape:current-layer="svg4" />
  <defs
     id="defs3">
    <linearGradient
       id="hex-grad"
       x1="0%"
       y1="0%"
       x2="100%"
       y2="100%">
      <stop
         offset="0%"
         stop-color="#00c8ff"
         id="stop1" />
      <stop
         offset="100%"
         stop-color="#6d28d9"
         id="stop2" />
    </linearGradient>
    <filter
       id="glow"
       x="-0.65454547"
       y="-0.65454547"
       width="2.3090909"
       height="2.3090909">
      <feGaussianBlur
         stdDeviation="1.2"
         result="blur"
         id="feGaussianBlur2" />
      <feMerge
         id="feMerge3">
        <feMergeNode
           in="blur"
           id="feMergeNode2" />
        <feMergeNode
           in="SourceGraphic"
           id="feMergeNode3" />
      </feMerge>
    </filter>
  </defs>

  <path
     id="rect3"
     d="M 16.107422,2.7675781 C 15.319519,3.3569379 14.295536,3.863215 13.019531,4.2265625 12.466121,4.3841484 11.910445,4.52977 11.349609,4.6582031 11.219506,4.8820128 10.996762,5.1067843 10.667969,5.3027344 10.559186,5.3675654 10.378513,5.4881667 10.246094,5.5742188 9.93761,5.7782745 9.6434357,6.0028907 9.3476562,6.2246094 c -0.023213,0.018135 -0.046863,0.036904 -0.070312,0.054687 -0.013664,0.013761 -0.012947,0.012631 -0.058594,0.052734 -0.2054723,0.1653381 -0.4333659,0.3012439 -0.6621094,0.4316407 -0.02002,0.010975 -0.037682,0.021499 -0.054687,0.03125 -0.011479,0.00685 -0.023655,0.012719 -0.035156,0.019531 0.012443,0.056644 0.024297,0.122695 0.039063,0.1972657 C 8.516426,7.0653024 8.4220338,7.0816298 8.375,7.109375 8.2622407,7.1758917 8.005228,7.2790442 7.8984375,7.3222656 7.7841196,7.3685336 7.6693937,7.4136878 7.5546875,7.4589844 7.4174189,7.5105734 7.2803684,7.5631021 7.1425781,7.6132812 6.3165479,7.914097 5.4766473,8.177265 4.6191406,8.3730469 c -5.428e-4,1.222e-4 -0.020318,0.00439 -0.052734,0.011719 -0.068392,0.027534 -0.1376172,0.05376 -0.2070312,0.078125 -0.1181975,0.041308 -0.2331184,0.088074 -0.3476562,0.1386719 -0.05401,0.023896 -0.1081786,0.048037 -0.1621094,0.072266 -0.00266,0.00391 -0.00511,0.00784 -0.00781,0.011719 -0.083034,0.1110551 -0.1705709,0.2077956 -0.2890625,0.2773437 -0.00227,0.013843 -0.00489,0.02726 -0.00781,0.041016 v 0.00195 h -0.00195 v 0.00195 0.00195 c -0.00198,0.014049 -0.00389,0.028915 -0.00586,0.042969 -0.023743,0.175807 -0.054943,0.3504353 -0.083984,0.5253906 -0.030062,0.1896192 -0.059012,0.3799281 -0.083984,0.570313 0.081617,0.150107 0.1328108,0.350116 0.1328125,0.601562 v 0.121094 c 2e-6,0.17698 -7.7e-6,0.35427 0,0.53125 1.58e-5,0.32647 -5.03e-5,0.654003 0,0.980468 9.18e-5,0.535025 0.00157,1.068493 0.00195,1.603516 5.102e-4,0.600542 -3.28e-4,1.202196 0.00195,1.802734 0.0014,0.298806 0.00228,0.597666 0.00586,0.896485 0.00648,0.08786 0.012927,0.175808 0.017578,0.263672 0.012466,0.167178 0.021104,0.334429 0.027344,0.501953 0.00189,0.0588 0.00268,0.116807 0.00391,0.175781 0.1972774,0.149283 0.3281121,0.460181 0.2675781,0.914063 -0.064055,0.480282 -0.1319614,0.958562 -0.1914062,1.439453 -0.06709,0.53552 -0.1257694,1.072961 -0.1308594,1.613281 0.00349,0.30324 0.010785,0.609126 0.078125,0.90625 0.0073,0.0289 0.014827,0.05648 0.023437,0.08398 0.1039711,0.104876 0.2102722,0.207934 0.3164062,0.310547 0.00604,0.0036 0.011512,0.008 0.017578,0.01172 0.1610207,0.09922 0.3307168,0.183534 0.4960938,0.275391 0.4585931,0.261196 0.913002,0.530045 1.3671875,0.798828 0.32467,0.192436 0.6501094,0.382878 0.9765625,0.572265 0.127404,0.07486 0.066505,0.03768 0.1855469,0.109375 0.2572814,0.154937 0.4142251,0.336215 0.4902343,0.511719 0.2493231,0.113355 0.4998052,0.224323 0.75,0.335938 0.2208905,0.0967 0.1131001,0.04881 0.3261719,0.142578 0.233504,0.102749 0.3978182,0.233518 0.5019531,0.371094 0.1068164,0.05284 0.2142619,0.103991 0.3222657,0.154296 0.3006513,0.146233 0.6027657,0.28942 0.9062501,0.429688 0.393055,0.18352 0.781139,0.376223 1.173828,0.560547 0.420438,0.20481 0.840295,0.412356 1.257812,0.623047 0.298114,0.154744 0.598746,0.303116 0.886719,0.476562 0.229267,0.134292 0.459365,0.269463 0.683594,0.41211 0.230988,0.151077 0.459959,0.304196 0.703125,0.435546 0.14439,0.08057 0.288172,0.163592 0.435547,0.238282 0.0512,0.02595 0.09982,0.05398 0.144531,0.08203 0.389657,-0.123851 0.779241,-0.246617 1.169922,-0.367188 0.355769,-0.112401 0.708934,-0.232423 1.054688,-0.373047 0.331216,-0.134433 0.659268,-0.278397 0.976562,-0.443359 0.331872,-0.182608 0.653008,-0.383354 0.982422,-0.570312 0.0935,-0.05371 0.18802,-0.107606 0.28125,-0.16211 0.08184,-0.196116 0.274571,-0.392234 0.603516,-0.533203 0.04905,-0.02103 0.09743,-0.04148 0.146484,-0.0625 0.370508,-0.156376 0.739814,-0.317638 1.117187,-0.457031 0.356375,-0.130052 0.713594,-0.257386 1.070313,-0.386719 -0.108212,-0.280518 0.04282,-0.675038 0.574219,-0.939453 0.118112,-0.05877 0.238033,-0.117708 0.357421,-0.173828 0.377767,-0.184117 0.751092,-0.372626 1.128907,-0.556641 0.476792,-0.232792 0.95917,-0.45983 1.427734,-0.708984 0.314169,-0.176794 0.622394,-0.361696 0.914063,-0.574219 0.116545,-0.08802 0.230954,-0.177248 0.345703,-0.267578 0.232914,-0.183349 0.453575,-0.267521 0.640625,-0.277344 0.06608,-0.395526 0.131343,-0.790356 0.1875,-1.1875 0.004,-0.02744 0.0079,-0.05457 0.01172,-0.08203 v -0.195312 -0.425782 c 0,-0.0047 -3.2e-5,-0.009 0,-0.01367 -0.0086,-0.154663 -0.01779,-0.3101 -0.01953,-0.464843 -0.0021,-0.201084 0.001,-0.402538 0.0078,-0.603516 0.0088,-0.215354 0.02293,-0.429749 0.04102,-0.644531 0.01585,-0.201475 0.03093,-0.403812 0.04102,-0.605469 -0.0258,-0.275194 -0.05555,-0.549249 -0.08008,-0.824219 -0.09119,-1.061588 -0.119841,-2.126626 -0.144531,-3.191406 -0.0201,-0.617892 -0.02748,-1.235947 -0.01758,-1.853516 -0.01381,-0.12093 -0.02525,-0.241814 -0.03516,-0.363281 -0.0119,-0.127099 -0.0096,-0.106862 -0.02344,-0.230469 -0.0086,-0.07671 -0.02166,-0.156791 -0.02344,-0.234375 5.53e-4,0.002 0.0015,0.0046 0.002,0.0059 0.03044,0.09185 0.06219,0.159986 0.0957,0.208984 0.0078,-0.226764 0.01847,-0.453005 0.03125,-0.679687 0.01167,-0.151385 0.02426,-0.301832 0.03711,-0.453125 -0.0011,-0.05176 -0.002,-0.104465 -0.002,-0.15625 V 9.8710938 9.4648438 9.2246094 c 0,-0.017752 -5.05e-4,-0.035487 0,-0.052734 -0.385735,-0.2766616 -0.770776,-0.5531335 -1.15625,-0.8300781 -0.212303,0.057722 -0.497791,0.015458 -0.81836,-0.1875 -0.116975,-0.07396 -0.05744,-0.036158 -0.177734,-0.1132813 C 26.050109,7.8863114 25.803163,7.7348749 25.550781,7.5917969 25.213691,7.3967711 24.863265,7.2275231 24.509766,7.0644531 24.131225,6.8938058 23.746168,6.7369024 23.371094,6.5585938 23.113698,6.4312104 22.859651,6.2958079 22.634766,6.1152344 22.510938,6.0218076 22.388592,5.9256379 22.269531,5.8261719 22.105274,5.6887114 21.942378,5.5480864 21.792969,5.3945312 21.692591,5.2790275 21.605495,5.1677141 21.550781,5.0390625 21.236501,4.9138048 20.921858,4.7906199 20.605469,4.6699219 19.752297,4.3383195 18.897875,4.0081012 18.048828,3.6660156 17.7805,3.5579049 17.085827,3.2789332 16.783203,3.1289062 16.553938,3.0152474 16.332964,2.8884418 16.107422,2.7675781 Z M 31.673828,25.222656 c -0.05818,0.07369 -0.121406,0.141615 -0.1875,0.203125 -0.0048,0.0117 -0.0087,0.02518 -0.01367,0.03711 0.295909,-0.1194 0.265188,-0.17841 0.201172,-0.240235 z m -4.144531,0.259766 c -0.05643,0.0073 -0.110797,0.01823 -0.148438,0.04102 -0.0023,0.0014 -0.0047,0.003 -0.0059,0.0039 v 0.002 h 0.002 c 0.01978,-0.0035 0.09481,-0.02963 0.125,-0.03906 0.0091,-0.0028 0.01831,-0.0049 0.02734,-0.0078 z" />

  <polygon
     points="16,3 27.8,9.5 27.8,22.5 16,29 4.2,22.5 4.2,9.5"
     fill="none"
     stroke="url(#hex-grad)"
     stroke-width="1.8"
     filter="url(#glow)"
     id="polygon3" />

  <polygon
     points="16,8 23.5,12.25 23.5,20.75 16,25 8.5,20.75 8.5,12.25"
     fill="url(#hex-grad)"
     opacity="0.15"
     id="polygon4" />

  <circle
     cx="16"
     cy="16"
     r="2.2"
     fill="#00c8ff"
     opacity="0.9"
     filter="url(#glow)"
     id="circle4" />
</svg>
